<svg xmlns="http://www.w3.org/2000/svg" viewBox="0 0 399.64 232.75"><defs><style>.cls-1{fill:#fff;}</style></defs><title>Asset 21heading-odometer-check</title><g id="Layer_2" data-name="Layer 2"><g id="Layer_1-2" data-name="Layer 1"><path class="cls-1" d="M199.82,10.72V0A201.62,201.62,0,0,0,.37,172.17,35,35,0,0,0,35,212.29H143.3V201.57a61.44,61.44,0,1,1,122.88,0v10.72H364.6a35.06,35.06,0,0,0,35-35,35.58,35.58,0,0,0-.37-5.12A201.62,201.62,0,0,0,199.82,0V21.43c90.56,0,165.52,66.85,178.24,153.84l.14,2a13.61,13.61,0,0,1-13.6,13.57H276.9v10.72h10.72a82.88,82.88,0,0,0-165.76,0h10.72V190.85H35a13.61,13.61,0,0,1-13.6-13.57l.14-2c12.72-87,87.68-153.86,178.24-153.84Z"/><path class="cls-1" d="M215.46,91.55V45.34a10.72,10.72,0,0,0-21.44,0V91.55a10.72,10.72,0,0,0,21.44,0"/><path class="cls-1" d="M134,117l-31.2-31.2A10.72,10.72,0,0,0,87.64,101l31.2,31.2A10.72,10.72,0,1,0,134,117"/><path class="cls-1" d="M290.18,132.59l32-32A10.71,10.71,0,0,0,307,85.46l-32,32a10.72,10.72,0,0,0,15.16,15.16"/><path class="cls-1" d="M239.16,198.34a34.42,34.42,0,1,1-34.42-34.43A34.42,34.42,0,0,1,239.16,198.34Z"/><path class="cls-1" d="M214.64,202.44,273.88,59.56a10.72,10.72,0,1,0-19.8-8.2L194.84,194.23a10.72,10.72,0,1,0,19.8,8.21"/><path class="cls-1" d="M199.82,10.72V0A201.62,201.62,0,0,0,.37,172.17,35,35,0,0,0,35,212.29H143.3V201.57a61.44,61.44,0,1,1,122.88,0v10.72H364.6a35.06,35.06,0,0,0,35-35,35.58,35.58,0,0,0-.37-5.12A201.62,201.62,0,0,0,199.82,0V21.43c90.56,0,165.52,66.85,178.24,153.84l.14,2a13.61,13.61,0,0,1-13.6,13.57H276.9v10.72h10.72a82.88,82.88,0,0,0-165.76,0h10.72V190.85H35a13.61,13.61,0,0,1-13.6-13.57l.14-2c12.72-87,87.68-153.86,178.24-153.84Z"/></g></g></svg>