<svg xmlns="http://www.w3.org/2000/svg" viewBox="0 0 400.15 356.28"><defs><style>.cls-1,.cls-2{fill:#fff;}.cls-2{fill-rule:evenodd;}</style></defs><title>Asset 19heading-damage-check</title><g id="Layer_2" data-name="Layer 2"><g id="Layer_1-2" data-name="Layer 1"><rect class="cls-1" x="96.02" y="271.82" width="110.3" height="6.61"/><path class="cls-1" d="M96,264h110.3a7.78,7.78,0,0,1,7.78,7.78v6.62a7.78,7.78,0,0,1-7.78,7.78H96a7.79,7.79,0,0,1-7.79-7.79v-6.61A7.79,7.79,0,0,1,96,264Z"/><path class="cls-1" d="M63.89,256.69a16.51,16.51,0,1,1-16.51-16.51A16.51,16.51,0,0,1,63.89,256.69Z"/><path class="cls-1" d="M271.46,256.69A16.51,16.51,0,1,1,255,240.18,16.51,16.51,0,0,1,271.46,256.69Z"/><path class="cls-1" d="M302.27,282.9c-.23-18.78-1.17-38.76-1.6-44.2h0c-.88-11-17.3-30.82-28.58-41.18l13.4.21h.13a7.79,7.79,0,0,0,.12-15.57l-18.83-.3h-.12a7.68,7.68,0,0,0-3.42.8c-6.28-15.51-16-34.89-21.08-39.94C239.12,139.55,232,135,206.5,132a479.45,479.45,0,0,0-53.95-2.73h-1.73c-23.31.07-78.82,1.51-90.78,13.47-5,5.06-14.81,24.43-21.08,39.94a7.78,7.78,0,0,0-3.37-.8l-18.83-.12h-.05a7.79,7.79,0,0,0-.05,15.57l13.71.09C19.08,207.73,2.54,227.64,1.66,238.7c-.43,5.44-1.37,25.41-1.6,44.2-.14,10.86,0,19.71.34,26.28.65,11.92,2,16.32,5.76,18.84.89.59,2.29,1.52,7.12,2.15v18.32a7.79,7.79,0,0,0,7.79,7.79H55.15a7.78,7.78,0,0,0,7.78-7.79V329.33H239.4v19.16a7.78,7.78,0,0,0,7.78,7.79h34.08a7.79,7.79,0,0,0,7.79-7.79V330.16c4.82-.62,6.23-1.55,7.12-2.15C300.27,325.27,302.76,321.62,302.27,282.9ZM71,153.77c4.12-3.55,32.48-8.85,80.29-9h1.36c47.57,0,74.6,5.19,78.61,8.91,3,3.12,12.43,21.5,18.21,36.08-10.24,1.67-35.81,4-98.16,3.34h-.16c-62.46.64-88.06-1.66-98.32-3.34C58.62,175.24,68,156.87,71,153.77ZM17.18,240c.18-1.85,3.49-8.43,11.58-18.24,6.87-8.33,13.9-15,16.74-16.61a7.11,7.11,0,0,0,1.06-.73c11,2.38,33.94,4.47,83.74,4.46q9.76,0,20.94-.1c64.43.64,92.1-1.68,104.53-4.37a6.49,6.49,0,0,0,1.06.74c7.45,4.26,27.67,28.25,28.32,34.84,1.11,14,2.57,61.67.73,75-7.63.66-26.72,0-42.76-1.16a5.33,5.33,0,0,0-.56,0h-2.29v-.09a8.23,8.23,0,0,0-8.23-8.19h0c-61.1.22-153.66.42-160.72.06a8.22,8.22,0,0,0-8.82,5.56,8,8,0,0,0-.42,2.66H59.77a5.24,5.24,0,0,0-.56,0c-16,1.17-35.13,1.83-42.76,1.16C14.61,301.61,16.07,253.9,17.18,240Z"/><path class="cls-2" d="M302.54,167.73s37.22-39.27,47.9-48.89L336.75,104l39.13-35.31,21.33,16.18-21.6,20.68,24.54,21.35Z"/><path class="cls-2" d="M308.79,163.44c.1.12,49.34-44.25,49.34-44.25l-13.7-14.8,31.75-28.65,12.71,9.65L367.6,105.78l22.71,19.77-81.53,37.78Z"/><path class="cls-2" d="M263.91,122.31s12.95-52.53,17.48-66.18L262.18,50,278.75,0l26.53,3.53-8.55,28.65,31.88,6.44Z"/><path class="cls-2" d="M267.22,115.49c.14.06,21-62.85,21-62.85L269,46.54,282.48,6l15.81,2.1-8.43,28.26,29.51,5.95L267.16,115.4Z"/></g></g></svg>