<svg xmlns="http://www.w3.org/2000/svg" viewBox="0 0 342.46 400.08"><defs><style>.cls-1{fill:#fff;}</style></defs><title>Asset 20Other-title-brand</title><g id="Layer_2" data-name="Layer 2"><g id="Layer_1-2" data-name="Layer 1"><path class="cls-1" d="M199.06,95.83H95V37.48h104Zm-83.6-20.42h63.18V57.9H115.46Z"/><path class="cls-1" d="M181.44,46.14a10.21,10.21,0,0,1-10.21-10.21V26.17a5.77,5.77,0,0,0-5.76-5.75H128.63a5.76,5.76,0,0,0-5.76,5.75v9.76a10.21,10.21,0,0,1-20.42,0V26.17A26.2,26.2,0,0,1,128.63,0h36.84a26.2,26.2,0,0,1,26.17,26.17v9.76A10.21,10.21,0,0,1,181.44,46.14Z"/><rect class="cls-1" x="99.11" y="143.69" width="108.68" height="20.42"/><circle class="cls-1" cx="67.72" cy="153.9" r="17.6"/><circle class="cls-1" cx="67.72" cy="216.12" r="17.6"/><circle class="cls-1" cx="67.72" cy="278.44" r="17.6"/><path class="cls-1" d="M269.38,210.1a73.09,73.09,0,1,0,73.08,73.09A73.18,73.18,0,0,0,269.38,210.1Zm41.12,61.33-47.45,47.45a11.65,11.65,0,0,1-16.47,0l-18.33-18.33a11.65,11.65,0,0,1,16.48-16.48l10.08,10.09L294,255a11.65,11.65,0,0,1,16.48,16.48Z"/><path class="cls-1" d="M174.78,283.19a94.67,94.67,0,0,1,1.18-15H99.11v20.42h75.83C174.83,286.84,174.78,285,174.78,283.19Z"/><path class="cls-1" d="M269.34,380.37a96.57,96.57,0,0,1-17-1.51,72.38,72.38,0,0,1-14.21-2.1,40.85,40.85,0,0,1-8,.79H62.93a40.45,40.45,0,0,1-40.4-40.41V100.41A40.44,40.44,0,0,1,62.93,60H230.14a40.45,40.45,0,0,1,40.41,40.4V188a96.18,96.18,0,0,1,22.53,2.95v-90.5a63,63,0,0,0-62.94-62.93H62.93A63,63,0,0,0,0,100.41V337.14a63,63,0,0,0,62.93,62.94H230.14a62.75,62.75,0,0,0,45.91-19.95C273.83,380.29,271.6,380.37,269.34,380.37Z"/><path class="cls-1" d="M207.79,211.44v-5.53H99.11v20.42h94.71A95.63,95.63,0,0,1,207.79,211.44Z"/></g></g></svg>