<svg xmlns="http://www.w3.org/2000/svg" viewBox="0 0 378.29 399.85"><defs><style>.cls-1{fill:#fff;}</style></defs><title>Asset 17major-state</title><g id="Layer_2" data-name="Layer 2"><g id="Layer_1-2" data-name="Layer 1"><path class="cls-1" d="M305.25,211a73,73,0,1,0,73,73.05A73.12,73.12,0,0,0,305.25,211Zm41.1,61.3-47.42,47.42a11.65,11.65,0,0,1-16.47,0l-18.31-18.32a11.64,11.64,0,0,1,16.47-16.46L290.7,295l39.19-39.19a11.64,11.64,0,0,1,16.46,0A11.66,11.66,0,0,1,346.35,272.25Z"/><rect class="cls-1" x="133.04" y="125.78" width="58.34" height="3.5"/><path class="cls-1" d="M191.44,133.43H133a4.14,4.14,0,0,1-4.15-4.15v-3.5a4.14,4.14,0,0,1,4.15-4.15h58.4a4.14,4.14,0,0,1,4.15,4.15v3.5A4.22,4.22,0,0,1,191.44,133.43Z"/><circle class="cls-1" cx="107.3" cy="117.74" r="8.75"/><circle class="cls-1" cx="217.18" cy="117.74" r="8.75"/><path class="cls-1" d="M242.2,131.61c-.13-9.91-.65-20.48-.84-23.4-.46-5.83-9.14-16.33-15.11-21.78l7.07.13h.06a4.15,4.15,0,0,0,.07-8.3l-10-.13h-.07a3.51,3.51,0,0,0-1.81.46c-3.31-8.23-8.5-18.48-11.15-21.13-1.69-1.69-5.45-4.09-18.93-5.71A261,261,0,0,0,163,50.33h-.91c-12.32.06-41.68.77-48,7.13-2.66,2.65-7.85,12.9-11.15,21.13a5.47,5.47,0,0,0-1.82-.46l-10-.06A4.12,4.12,0,1,0,91,86.3l7.26.07c-6,5.44-14.71,16-15.16,21.84-.26,2.85-.72,13.42-.85,23.4-.06,5.77,0,10.44.2,13.94.32,6.29,1,8.62,3,10,.46.33,1.24.78,3.76,1.17v9.72a4.14,4.14,0,0,0,4.15,4.15h18a4.13,4.13,0,0,0,4.15-4.15V156.31H209v10.11a4.14,4.14,0,0,0,4.15,4.15h18a4.13,4.13,0,0,0,4.15-4.15V156.7c2.53-.33,3.31-.84,3.76-1.17C241.16,154,242.46,152.16,242.2,131.61ZM119.82,63.29c2.2-1.88,17.17-4.67,42.52-4.73h.71c25.15,0,39.48,2.72,41.62,4.73,1.62,1.69,6.54,11.41,9.66,19.12-5.45.91-18.93,2.08-51.93,1.75h-.06c-33.06.33-46.61-.9-52-1.75C113.27,74.63,118.26,64.91,119.82,63.29ZM91.36,108.93c.06-1,1.81-4.48,6.16-9.66,3.63-4.41,7.39-7.91,8.88-8.82l.58-.39c5.83,1.23,18,2.34,44.34,2.34,3.43,0,7.13,0,11.08-.07,34.1.32,48.75-.91,55.3-2.33l.58.39c3.95,2.26,14.65,15,15,18.41.59,7.38,1.36,32.67.39,39.67-4,.32-14.13,0-22.62-.65h-1.56v-.07a4.34,4.34,0,0,0-4.34-4.34c-32.34.13-81.35.19-85.05.07a4.38,4.38,0,0,0-4.66,2.91,5.09,5.09,0,0,0-.2,1.43h-1.55c-8.49.65-18.61,1-22.63.65C90,141.53,90.71,116.31,91.36,108.93Z"/><rect class="cls-1" x="108.21" y="204.25" width="119.84" height="22.51"/><circle class="cls-1" cx="73.6" cy="215.51" r="19.41"/><circle class="cls-1" cx="73.6" cy="274.18" r="19.41"/><circle class="cls-1" cx="73.6" cy="331.96" r="19.41"/><path class="cls-1" d="M209.09,284a96.22,96.22,0,0,1,2.33-21.07H108.21v22.51h100.9C209.1,285,209.09,284.48,209.09,284Z"/><path class="cls-1" d="M216.38,320.7H108.21v22.52H228.05a11.53,11.53,0,0,1-1.18-3.57A96,96,0,0,1,216.38,320.7Z"/><path class="cls-1" d="M305.25,380.16a96.34,96.34,0,0,1-17-1.51A71.54,71.54,0,0,1,274,376.54a40.07,40.07,0,0,1-7.95.8H62.9A40.44,40.44,0,0,1,22.51,337V62.9A40.44,40.44,0,0,1,62.9,22.51H266.08A40.44,40.44,0,0,1,306.46,62.9v125a96.63,96.63,0,0,1,22.52,3V62.9A63,63,0,0,0,266.08,0H62.9A63,63,0,0,0,0,62.9V337a63,63,0,0,0,62.9,62.9H266.08A62.7,62.7,0,0,0,312,379.92C309.74,380.07,307.51,380.16,305.25,380.16Z"/></g></g></svg>