<svg xmlns="http://www.w3.org/2000/svg" viewBox="0 0 399.95 376.25"><defs><style>.cls-1{fill:#fff;}</style></defs><title>Asset 18accident-check</title><g id="Layer_2" data-name="Layer 2"><g id="Layer_1-2" data-name="Layer 1"><rect class="cls-1" x="179.92" y="286.17" width="117.63" height="7.05"/><rect class="cls-1" x="171.62" y="277.87" width="134.24" height="23.66" rx="8.3" ry="8.3"/><path class="cls-1" d="M145.65,270a17.61,17.61,0,1,1-17.6-17.61A17.6,17.6,0,0,1,145.65,270Z"/><path class="cls-1" d="M367,270a17.61,17.61,0,1,1-17.61-17.61A17.6,17.6,0,0,1,367,270Z"/><path class="cls-1" d="M399.89,298c-.25-20-1.25-41.34-1.71-47.14h0c-.94-11.75-18.45-32.87-30.48-43.92l14.29.23h.14a8.31,8.31,0,0,0,.13-16.61l-20.08-.32H362a8.26,8.26,0,0,0-3.64.85c-6.69-16.54-17.09-37.2-22.48-42.59-3.38-3.38-11-8.24-38.17-11.46a513.15,513.15,0,0,0-57.54-2.91h-1.85c-24.86.07-84.05,1.61-96.81,14.37-5.39,5.39-15.79,26-22.48,42.59a8.32,8.32,0,0,0-3.59-.85L95.4,190.1h-.06a8.31,8.31,0,0,0,0,16.61l14.62.09c-12,11-29.68,32.26-30.62,44-.46,5.8-1.46,27.1-1.71,47.14-.15,11.58,0,21,.36,28,.7,12.71,2.14,17.41,6.15,20.09,1,.64,2.44,1.63,7.6,2.3v19.54a8.3,8.3,0,0,0,8.3,8.31h36.34a8.31,8.31,0,0,0,8.31-8.31V347.5H332.83v20.44a8.31,8.31,0,0,0,8.31,8.31h36.34a8.3,8.3,0,0,0,8.3-8.31V348.39c5.15-.66,6.65-1.65,7.6-2.29C397.75,343.17,400.41,339.28,399.89,298ZM153.25,160.28c4.39-3.79,34.64-9.44,85.63-9.55h1.45c50.73,0,79.56,5.54,83.84,9.5,3.22,3.33,13.25,22.93,19.42,38.47-10.92,1.79-38.19,4.24-104.69,3.57h-.17c-66.61.68-93.92-1.77-104.85-3.56C140,183.17,150.07,163.57,153.25,160.28Zm-57.41,91.9c.2-2,3.72-9,12.35-19.46,7.32-8.88,14.83-16,17.86-17.7a8.06,8.06,0,0,0,1.12-.79c11.73,2.54,36.2,4.77,89.31,4.77q10.41,0,22.33-.12c68.71.69,98.23-1.78,111.48-4.65a8.8,8.8,0,0,0,1.13.79c7.95,4.54,29.51,30.12,30.21,37.15,1.19,14.89,2.74,65.77.77,80-8.13.7-28.5,0-45.59-1.24-.2,0-.41,0-.61,0h-2.43v-.09a8.77,8.77,0,0,0-8.77-8.74h0c-65.17.23-163.88.44-171.41.07a8.77,8.77,0,0,0-9.86,8.76h-2.43c-.2,0-.41,0-.61,0-17.1,1.24-37.46,1.95-45.59,1.24C93.1,317.94,94.65,267.06,95.84,252.18Z"/><path class="cls-1" d="M62.34,304.47c0-2.17,0-4.35,0-6.68.26-20.35,1.29-42.17,1.77-48.16.85-10.74,8.37-23,16.27-33.09A23.49,23.49,0,0,1,95.34,174.9l14.09.1c6-13.32,14.64-30.52,21.38-37.25,4.59-4.6,18.57-18.58,107.51-18.83h1.89a530.12,530.12,0,0,1,59.33,3c18.57,2.2,29.57,5.34,36.73,8.72L331.82,81.9l-44.2,26.58L280.53,35l-56.67,70.85L173.67,0,155.49,107.6,72.92,76.8l27,79.5-65,1.65,21.89,52.37L0,228.52,45.08,268.9l-26.26,11Z"/></g></g></svg>