<svg height="104" viewBox="0 0 232.74 103.25" width="236" xmlns="http://www.w3.org/2000/svg" xmlns:xlink="http://www.w3.org/1999/xlink"><clipPath id="a" transform="translate(0 -.16)"><path d="m53.75 0h177.82v103.41h-177.82z"/></clipPath><clipPath id="b" transform="translate(0 -.16)"><path d="m185 103.41 1.36-.63zm33.35-65.36.87-1.2.7.51zm2 .11.65-1 .64.85-1.29.11m-10.83 2.88-.46-.28 1.7-1.43 2.75-.16 1-.8-.3.74 1.23-.23-1.82 1.16-2.16.06-1.89 1m-141.57 27.25-.55-.31 1.55-.25.81.41zm5.44 2.63-.7-.75zm0 2.06-.87-1.14.85 1.14m114.23 28.41-.85-.21-.06-1.52-.92-1.14-.84-.83-.92-2.86-.84-.49-.84-1.1.22-2.44-.5.62-.1 1.29-.42-.12-.14-.78.56-1.34.14-3.64-1.34-1-1.44-1.85-1.12-1-.91.14-1.9 1.17-1.54-.21-.64-1-2.1-1.29-2.82-.15-1.4.69h-.77l-.28-2.51-.28 2.16-3-.06-1.4.27-2.39-.36-.17 1.15.63.32 2-.26 1 .14-.42.81-1 .83 1.7 1.56-.78.48-1.77-1.74-.7 1.23-2.25-.06-3-2.45-1 .06v1l-1.54.15-1.83-1-2.88.69-1.41.69-.31-1.45-.42 2.48-.6 1.31-3 1.7.06-1.37-1.06.9.25 1.07-2.42 1.58-.55 2.33.06 2.77.75 2-3.82-.8-2.16-1.37-1-1.83-.76-2.62-2.16-2.24-1.46-3.43-2.5-2.33h-3.29l-.9 1.37-.6 1.55h-1.5l-2.81-2.62-.7-2.24-.31-1.32-5.06-4.35-5-.09-.4 1.79h-8.28l-11.79-4.86-6.58.39-.49-2.32-2.41-2.45h-1l-.1-1-1.7-.24-2.06-1.52-3-.45v-2.47l-4.08-4.82.3-2.39-1.31-.48-.4-2.79 1.46-1.27-1.65-.63-.31 1.37-1.16-.88v-1.26l-2.16-2.17-.41-3.81-1.59-2.27.25-1.27.55-.83-.1-4.44-1.2-4.24 1-4.29.3-2.93.61-8.34 2 .29-1-1.27h-1.35l-.21-3.12-.6-.09-.4-3.17-1.05-1.13.05-2 .9.09 1.56.93 3.51.09v1.13l-1 2.14 1.76-1.76.76-.14-.62-2.77-.6-.34.88-.93-1.54-1.53h84.7v-1.84h.55l1.2 3.22h1.56l1.25.69 2.11-.25 1.5.59 2.12 1.51 1.4.83 1.26-.49 3.8.79-2.91 1.95-4.56 4.15 1.41.49 1.61-1.27h1v1.23h2l2.71-1.27 3.21-2.88 1.51.05-2.37 2.59-.05.82 1.67-.82 1.9 2.09 2.21.14 1.3-1.06 2 .14.7-.49h.81v.83l.86.54h1.34l.36 1.17.94 1.12-2.1.05-.54.49-1.66-1.11-1.15.94-1.4.29-1.42 1.22-.25-1-1 .49-2.77 4.78v.63l2.47-3.12.19.59-1 1.8-.7 3-.6 4.59v3.41l.75 1.7.45.83h1.41l.95-1 1.05-3.22.2-2.49-.91-1.66.25-1.89 1-4.06 1.26-1 .3.84.66-.67.11-1.12 1-.19-.11-1.62 1.11-.2 3.45 1.81.66 1.06-.36.55.51 1.56.09.83-.7 1.21-1.26 1.56.41.89 1.06-.49.45-1.17 1.3.09.66.74.4.88-.06 1.89.28.72-.85 2.09-.92.51v.81l-.45 1.59-.54 1.08.74.48 2.21.64 2.41-.54 2.21-1.66 1.45-.1.46-.53 2.8-1.61 1.56-1.61-.45-1.66 3-1.07 1.56.68 2.12-.05 1.2-.88h.69l.36-.73-.45-2.19 1.25-1.46 2.39-2.42h10.61l1-1.36 1.06-.07 1.56-1.5.28-2.6 1.12-3.34 1.48-2.59h1.14l.57 1.15 1.33-.2.63-.82 1.47 1.7v6.41l.84.41.14 1 .56.75.84.14.08 1.09.64.95-1.84.34-2.6 1.85-1-.55-.36.68.28.89-1.46-.55-1.89 1.65-1.14-.35-.9 1.91-1.28 1.64-.14 1.84.7.13-.92 1 1 1.7.58 1 1.26.13.61-.8-.28 1.23-1.12.48-1.26-.48-.72.41-1-.75-.42 1-.64.55-3.51.27-1.55.75-1.55.69-1 1.09-.48.89.62.47.14 1.17-.9 2.59-1.56 2-2.42-2v.82l1.12 2 .48 1.23-.48 1.44-.84 1.91-.85 2.45h-.78l.21-2 .64-1.16-.57-1.57h-.84l-.21-1.16.56-1-.7-1 .91-2.12-1.61 1.58v4l-2.67-1.3 1.2 1.37 1.78 1.15.49.55-.14 2.66-.7.41.41.69 1.48.2.15 2.33-1.41 1-1.12-1.1.56 1.44 2.31.34-.07 1.36-1.12.69-1.41-.57-.62.41 1 .74-.42.76.63.27-.41 1-1.4.42-1.42.26-1.26 1.86-1.48.59-1.68 1-1.4 2.32-2.26 2.06h-2.1l.35.81-.9.75-1.34 3-.36 2.18v1.85l.56 2.81 1.69 3.19.35 2.65 1.34 3.29.14 3.28-.57 2.6-.77.74-1.19.57m.07 1.19 2-1.94-.53 1.08-1.43.86"/></clipPath><linearGradient id="c" gradientTransform="matrix(177.33 0 0 -177.33 148498.02 62921.5)" gradientUnits="userSpaceOnUse" x1="-837.11" x2="-836.11" y1="354.54" y2="354.54"><stop offset="0" stop-color="#d4e7f8"/><stop offset=".02" stop-color="#d4e7f8"/><stop offset=".02" stop-color="#d4e7f7"/><stop offset=".03" stop-color="#d4e6f7"/><stop offset=".04" stop-color="#d3e6f7"/><stop offset=".05" stop-color="#d3e6f7"/><stop offset=".06" stop-color="#d3e6f7"/><stop offset=".07" stop-color="#d3e6f7"/><stop offset=".08" stop-color="#d2e5f7"/><stop offset=".09" stop-color="#d2e5f7"/><stop offset=".1" stop-color="#d1e5f6"/><stop offset=".11" stop-color="#d1e4f6"/><stop offset=".13" stop-color="#d1e4f6"/><stop offset=".13" stop-color="#d0e3f6"/><stop offset=".14" stop-color="#d0e2f6"/><stop offset=".16" stop-color="#cfe2f5"/><stop offset=".17" stop-color="#cfe1f5"/><stop offset=".19" stop-color="#cee1f5"/><stop offset=".2" stop-color="#cde0f5"/><stop offset=".21" stop-color="#cde0f4"/><stop offset=".22" stop-color="#cddff4"/><stop offset=".23" stop-color="#ccdff4"/><stop offset=".25" stop-color="#cbdef4"/><stop offset=".27" stop-color="#cbddf3"/><stop offset=".27" stop-color="#caddf3"/><stop offset=".28" stop-color="#cadcf3"/><stop offset=".3" stop-color="#c9dbf3"/><stop offset=".31" stop-color="#c8dbf2"/><stop offset=".33" stop-color="#c8daf2"/><stop offset=".34" stop-color="#c7d9f2"/><stop offset=".36" stop-color="#c6d8f1"/><stop offset=".38" stop-color="#c5d7f1"/><stop offset=".39" stop-color="#c5d6f1"/><stop offset=".41" stop-color="#c4d5f0"/><stop offset=".42" stop-color="#c3d4f0"/><stop offset=".43" stop-color="#c2d4ef"/><stop offset=".44" stop-color="#c2d3ef"/><stop offset=".45" stop-color="#c1d3ef"/><stop offset=".45" stop-color="#c1d2ef"/><stop offset=".46" stop-color="#c1d2ef"/><stop offset=".47" stop-color="#c0d2ef"/><stop offset=".48" stop-color="#bfd1ee"/><stop offset=".49" stop-color="#bfd0ee"/><stop offset=".5" stop-color="#bed0ee"/><stop offset=".51" stop-color="#becfee"/><stop offset=".52" stop-color="#bdceed"/><stop offset=".53" stop-color="#bccded"/><stop offset=".55" stop-color="#bbcdec"/><stop offset=".56" stop-color="#bbccec"/><stop offset=".58" stop-color="#bacbec"/><stop offset=".59" stop-color="#bacaec"/><stop offset=".59" stop-color="#bacaeb"/><stop offset=".6" stop-color="#bacaeb"/><stop offset=".61" stop-color="#bac9eb"/><stop offset=".63" stop-color="#b9c9eb"/><stop offset=".64" stop-color="#b9c8eb"/><stop offset=".65" stop-color="#b9c8ea"/><stop offset=".66" stop-color="#b9c7ea"/><stop offset=".67" stop-color="#b9c7ea"/><stop offset=".69" stop-color="#b8c6e9"/><stop offset=".7" stop-color="#b8c5e9"/><stop offset=".71" stop-color="#b8c5e9"/><stop offset=".72" stop-color="#b8c4e9"/><stop offset=".73" stop-color="#b8c4e8"/><stop offset=".74" stop-color="#b7c3e8"/><stop offset=".75" stop-color="#b7c2e8"/><stop offset=".77" stop-color="#b7c2e8"/><stop offset=".78" stop-color="#b7c1e7"/><stop offset=".79" stop-color="#b7c1e7"/><stop offset=".8" stop-color="#b6c0e7"/><stop offset=".81" stop-color="#b6c0e6"/><stop offset=".83" stop-color="#b6bfe6"/><stop offset=".84" stop-color="#b6bee6"/><stop offset=".85" stop-color="#b6bee6"/><stop offset=".86" stop-color="#b5bee5"/><stop offset=".87" stop-color="#b5bde5"/><stop offset=".88" stop-color="#b5bde5"/><stop offset=".89" stop-color="#b5bce5"/><stop offset=".91" stop-color="#b5bce5"/><stop offset=".91" stop-color="#b5bbe4"/><stop offset=".92" stop-color="#b4bbe4"/><stop offset=".93" stop-color="#b4bae4"/><stop offset=".94" stop-color="#b4bae4"/><stop offset=".95" stop-color="#b4bae4"/><stop offset=".95" stop-color="#b4b9e4"/><stop offset=".97" stop-color="#b4b9e3"/><stop offset=".98" stop-color="#b4b8e3"/><stop offset=".98" stop-color="#b3b8e3"/><stop offset=".99" stop-color="#b3b8e3"/><stop offset="1" stop-color="#b3b7e2"/></linearGradient><g clip-path="url(#a)"><g clip-path="url(#b)"><g clip-path="url(#b)"><path d="m53.8.16v103.25h177.34v-103.25z" fill="url(#c)" transform="translate(0 -.16)"/></g></g></g><g transform="translate(0 -.16)"><path d="m22.74 83.78c-14.82-10.78-24.26-24.63-22.1-33.89 1.53-6.59 8.59-9.38 18.28-8.34-9.09-.63-15.62 2.08-17 8.09-1.79 7.63 5.2 18.51 16.82 27.82-5.74-3.52-11.91-9.82-13.57-12.94 1.65 3.75 10.46 13.62 17.57 19.26zm-3.21-13.08c-9.41-7.04-15.21-16.2-13.64-22.7.94-3.88 4.36-6.09 9.19-6.54-4.62.9-7.81 3.28-8.54 7-1.3 6.71 5.79 15.54 16.46 21.26-5.14-2.1-10.19-5.69-11.93-8 1.18 1.92 4.46 5.49 8.43 9" fill="#e6a60f" fill-rule="evenodd"/><path d="m22.74 83.78.19-.26a72.6 72.6 0 0 1 -16.15-15.73c-3.91-5.39-6.12-10.69-6.12-15.13a11.89 11.89 0 0 1 .34-2.66 9.35 9.35 0 0 1 4.69-6.2 19.18 19.18 0 0 1 9.49-2.1 33.67 33.67 0 0 1 3.75.21v-.66c-.87-.06-1.72-.09-2.54-.09a20.58 20.58 0 0 0 -9.85 2.09 9.56 9.56 0 0 0 -5 6.34 11.52 11.52 0 0 0 -.28 2.55c.04 3.77 1.74 8.07 4.74 12.48a62.23 62.23 0 0 0 12.52 13.1l.21-.26.18-.28a49.94 49.94 0 0 1 -8.26-6.58 30.44 30.44 0 0 1 -5.19-6.24l-.6.3a22.05 22.05 0 0 0 2.48 3.86 100 100 0 0 0 15.19 15.53l.21-.27.19-.26-.19.26.2-.25a98.23 98.23 0 0 1 -10.79-10.31c-1.64-1.82-3.15-3.57-4.27-5.1a21.54 21.54 0 0 1 -2.4-3.73l-.31.13-.29.16a31.39 31.39 0 0 0 5.32 6.4 49.78 49.78 0 0 0 8.37 6.66l.43-.54a61.38 61.38 0 0 1 -12.39-13c-3.01-4.29-4.61-8.49-4.61-12.09a10.77 10.77 0 0 1 .27-2.4 8.89 8.89 0 0 1 4.61-5.91 20 20 0 0 1 9.53-2q1.2 0 2.49.09l.06-.66a37.47 37.47 0 0 0 -3.82-.23 19.8 19.8 0 0 0 -9.82 2.18 10.09 10.09 0 0 0 -5 6.63 12.39 12.39 0 0 0 -.32 2.85c0 4.66 2.29 10.06 6.24 15.52a73.7 73.7 0 0 0 16.3 15.87l.4-.52zm-3-13.35a44 44 0 0 1 -10-10.16c-2.4-3.51-3.75-7-3.75-10a9 9 0 0 1 .25-2.13 7.3 7.3 0 0 1 3-4.36 12.29 12.29 0 0 1 5.9-1.93v-.33l-.14-.36a13.55 13.55 0 0 0 -5.88 2.52 7.85 7.85 0 0 0 -2.92 4.74 8.76 8.76 0 0 0 -.2 1.69c0 3.34 1.74 7 4.7 10.44a42.62 42.62 0 0 0 12.18 9.45l.15-.29.13-.31a39.34 39.34 0 0 1 -7.16-3.88 20.53 20.53 0 0 1 -4.62-4l-.54.37a27.38 27.38 0 0 0 3.2 4c1.48 1.58 3.29 3.37 5.28 5.14l.45-.49a72 72 0 0 1 -5.24-5.1 28.92 28.92 0 0 1 -3.13-3.85l-.28.17-.27.2a21 21 0 0 0 4.78 4.19 38.9 38.9 0 0 0 7.3 4l.28-.59a42.14 42.14 0 0 1 -11.92-9.31c-2.9-3.39-4.55-6.91-4.55-10a8.17 8.17 0 0 1 .15-1.56 7.27 7.27 0 0 1 2.69-4.36 12.86 12.86 0 0 1 5.59-2.33l-.1-.65a13.06 13.06 0 0 0 -6.21 2 8 8 0 0 0 -3.3 4.65 10.29 10.29 0 0 0 -.26 2.28c0 3.22 1.41 6.82 3.86 10.4a44.87 44.87 0 0 0 10.17 10.32l.39-.53" fill="#e6a60f"/><path d="m39.79 78.54s-2.8-6.14-3.6-7-3.83-.64-7.19-.44-3.76.66-4.35 2.44a2.68 2.68 0 0 1 1.35-2.34 27.78 27.78 0 0 1 6.71-1.12c3.91-.15 4.17-.28 6.67 3.94s1.5 3.64 3 3.64 6-.08 8.39-.13 3.43-.09 4.53-.17 1.71.08.52-1.06a56.79 56.79 0 0 0 -5.4-5 1.92 1.92 0 0 0 -.31-.18c-2.92-.48-8.17-.36-12.3-.39 3.4-.13 6.9-.21 10.8-.09h-.19c-1.33-.31-4.37-.48-10.53-.78a94 94 0 0 1 11 .56c2.58.44 4.44 2.82 5.85 4.17a33.3 33.3 0 0 1 2.36 2.41c.67.75 2.59 1.9 3.83 3.22s1.73 2 1.5 2.32-2.09 2.2-1.93 3 2.29-.18 2.67-.66c.14-.18.25-.2.32.12s.21.65-2 1.26a40.82 40.82 0 0 1 -10.31 1.48 42.92 42.92 0 0 1 -7.68-.51c-.65-.19-1-.17-1.18-.48s-1.32-2.53-2.65-2.26-1.49 1.14-1.54 2.17a7.43 7.43 0 0 0 .3 2.77c.26.56.44 1-.13.71l-10.85-5.35c-.11-.06-.32 0-.68-.78s-1-5-2.11-3.4c0-.71.91-1.33 1.27-.34s.73 3.35 1.35 3.77 10.06 4.74 10.06 4.74.56.3.42-.79-.27-3.91 1.4-4.54a2.35 2.35 0 0 1 3.25 1.77c.36 1.37 1.06 1.76 2 1.39s1 0 2.2.21a15.7 15.7 0 0 0 3.68.32c.65-.14 1.76-.4.37-1.86-1.21-1.28-3-1.66-5-2-1.21-.22-2-.08-2 .48s-.23.14-1.16-.37-5.39-3.32-7.47-4-5.78-2-5.78-2 4.49 1.34 6.34 1.85 3.71 1 4.12.28a.91.91 0 0 0 .06-.9zm21.77 3.3c-.38-.76-3.77-4.08-4.9-3.93a116.53 116.53 0 0 1 -13.73.48c-.57 0-1.38.12-1.5.61s-1 1.68-1.39 1.68c-.23 0-.14.28.23.5a30.34 30.34 0 0 0 2.73 1.91 4.1 4.1 0 0 1 2.55-.62 14.51 14.51 0 0 1 4.38 1.27c.7.42 2.42 1.76 2.27 2.75-.07.41.64.46 1.45.43a37 37 0 0 0 5.84-.83c.39-.14.27-.08.36-.51a4.4 4.4 0 0 1 .29-1 6 6 0 0 1 1.21-1.7c.46-.48.65-.56.21-1.04zm-11.48 5a17.6 17.6 0 0 1 -4.15-.52 3.73 3.73 0 0 1 -1.75-2c-.1-.37-.08-.7.62-.68a11.17 11.17 0 0 1 3.57.71 7 7 0 0 1 1.79.89c.62.47 1.1 1.61-.08 1.65zm-3.2-.7a.52.52 0 0 0 .4-.08l2 .24 1.07.13a.64.64 0 0 1 -.36.08 15.49 15.49 0 0 1 -3.11-.32zm.5-.22a.48.48 0 0 0 0-.29l1.71.3 1.33.23a.31.31 0 0 1 0 .19l-1.2-.17-1.84-.18zm0-.44a1.54 1.54 0 0 0 -.17-.34l1.73.4 1.4.31a1.47 1.47 0 0 1 .1.22l-1.37-.27zm-.31-.48a1.42 1.42 0 0 0 -.24-.25l-.21-.19 2.13.6 1.22.35.1.07a1.8 1.8 0 0 1 .19.2l-1.38-.33zm-.79-.7a1.6 1.6 0 0 0 -.62-.29 18.19 18.19 0 0 1 4 1.31zm-.8-.14c-.3-.06-.49 0-.55.24a.92.92 0 0 0 .17.68 2.7 2.7 0 0 0 .61.65 2.22 2.22 0 0 0 .69.34.58.58 0 0 0 .51-.07.44.44 0 0 0 .09-.5 2.1 2.1 0 0 0 -.57-.81 1.9 1.9 0 0 0 -1-.52zm-.21.23c-.09 0-.15 0-.17.07a.28.28 0 0 0 0 .22 1.8 1.8 0 0 0 .19.2.62.62 0 0 0 .22.1.11.11 0 1 0 .16-.16.62.62 0 0 0 -.17-.25.67.67 0 0 0 -.3-.16zm18.25 1.83a29.61 29.61 0 0 1 -7.18 1.78 55.27 55.27 0 0 1 -11.43.17c-1.74-.29-2.2-.8-1.79.66s.25 3.51 2.89 3.55a49.2 49.2 0 0 0 9.76-1 42.74 42.74 0 0 0 6.47-1.78c.7-.41 2-3.33 1.28-3.39zm-2.52-.63a4 4 0 0 0 2-.82.48.48 0 0 0 .18-.52 5.6 5.6 0 0 0 -.47-1.54c-.1-.17-.24-.06-.36.09-.53.67-1 1.3-1.49 2s-.04.81.14.79zm1.42-2.51a.64.64 0 0 1 .1-.24c-.12.18-.27.35-.41.52l-.22.27c-.14.15-.27.31-.38.45a2.83 2.83 0 0 0 -.32.45l.33-.38.45-.52c.08-.1.17-.2.24-.3zm-.17.54v-.21l.06-.16-.26.31-.23.27-.37.4c-.16.18-.29.33-.41.45v.06l-.08.15.49-.47.33-.34.45-.46zm0 .41a1.22 1.22 0 0 1 0-.27c-.16.17-.31.31-.44.44l-.33.32c-.2.19-.37.33-.5.46v.15c.14-.1.3-.24.51-.41l.35-.28.47-.41zm.2.35a.66.66 0 0 1 -.17-.23l-.5.4-.37.28c-.2.16-.37.28-.5.37a.33.33 0 0 0 0 .14l.48-.28.43-.27.29-.19zm.64.08a.61.61 0 0 1 -.46 0l-.38.21-.34.19-.55.3-.44.22h.13l.38-.11.45-.17.3-.14.32-.17.32-.19.27-.2zm-.49-1.39a1.29 1.29 0 0 0 -.17.69c0 .44.27.7.56.61.12 0 .1-.17.07-.32a6.63 6.63 0 0 0 -.25-.9c0-.15-.08-.26-.19-.08zm.09.1a.27.27 0 0 0 -.1.18c0 .1 0 .17.09.17s.1-.08.1-.17 0-.18-.07-.18zm.12 3.9a27.53 27.53 0 0 1 -4.35 1.3 35.49 35.49 0 0 1 -4.23.56c-1.51.13-3.07.18-4.68.2s-3.31 0-5.06-.08c-.08 0-.13 0-.12.08v.16a.26.26 0 0 0 .16.09c1.72 0 3.38.06 5 0s3.15-.1 4.66-.23a40 40 0 0 0 4.22-.59 28.5 28.5 0 0 0 4.34-1.3.23.23 0 0 0 .12-.1v-.11h-.1zm-.09.4a29.89 29.89 0 0 1 -4.33 1.29c-1.39.27-2.79.48-4.2.61s-3 .22-4.63.27-3.24 0-4.94 0c-.06 0-.11 0-.1.07l.06.16a.17.17 0 0 0 .16.08h4.84c1.53 0 3.05-.13 4.57-.31s2.81-.36 4.2-.64a28 28 0 0 0 4.3-1.28.27.27 0 0 0 .12-.09v-.11h-.09zm-.14.4a32.3 32.3 0 0 1 -4.28 1.27c-1.37.29-2.76.5-4.17.66s-3 .27-4.53.34-3.13.07-4.76.06c-.07 0-.11 0-.09.08l.08.15a.17.17 0 0 0 .16.08c1.58 0 3.13 0 4.64-.1s3-.2 4.47-.38 2.77-.38 4.13-.68a31.54 31.54 0 0 0 4.26-1.26.19.19 0 0 0 .13-.1v-.11zm-.17.39a34.28 34.28 0 0 1 -4.23 1.26c-1.36.3-2.73.52-4.11.7s-2.9.31-4.4.41-3 .12-4.55.12c-.06 0-.09 0-.07.08l.09.15.16.07a40.72 40.72 0 0 0 4.42-.16c1.42-.16 2.9-.25 4.32-.44s2.72-.42 4.06-.72a36.16 36.16 0 0 0 4.2-1.25l.13-.1.06-.1zm-19.81-.07c.09.52.28 1.6.43 2.18a4.84 4.84 0 0 0 1 2c.39.39.61.5.32 1.15a1.72 1.72 0 0 1 -1.86 1.2 3.42 3.42 0 0 1 -3.11-1.72 7.5 7.5 0 0 1 -.73-2c.51 1.44 1.46 2.55 2.38 2.64 1.14.12 1.8-1.34 1.47-3.27s-1.5-3.67-2.66-3.8a1.1 1.1 0 0 0 -.8.23 1.61 1.61 0 0 1 1.49-1.14c.22 0 .76 0 .85.35a4.09 4.09 0 0 0 1 1.64.84.84 0 0 1 .24.54zm16.31 3.45c-.35.06-1.55.2-1.8-.24 1.32-.31 2.58-.62 3.53-.9a2.93 2.93 0 0 1 -1.71 1.14zm-32.91-9.48c.1.58.4 2.34.85 2.66s1 .43 1 .69 0 1.17-.72 1.25a2.2 2.2 0 0 1 -1.66-.25 2.76 2.76 0 0 1 -.58-1.4c.19.54.44.93.71 1 .45.15.75-.66.66-1.82s-.52-2.22-1-2.37c-.18-.07-.33 0-.45.24a1.46 1.46 0 0 1 .43-.82c.48-.36.7.45.76.8" fill="#fff" fill-rule="evenodd"/><path d="m204 12.16a2.34 2.34 0 1 0 2.34 2.34 2.33 2.33 0 0 0 -2.34-2.34zm0 5.16a2.83 2.83 0 1 1 2.83-2.83 2.83 2.83 0 0 1 -2.83 2.83z" fill="#fff" stroke="#000" stroke-miterlimit="2.62" stroke-opacity=".94" stroke-width=".65"/><path d="m203.47 14.34h.46c.48 0 .79-.22.79-.55s-.33-.53-.81-.53a1.62 1.62 0 0 0 -.44 0zm-.47-1.34a6.22 6.22 0 0 1 .86-.06 1.6 1.6 0 0 1 1 .24.64.64 0 0 1 .28.54.79.79 0 0 1 -.66.73.74.74 0 0 1 .52.55 5.66 5.66 0 0 0 .27.79h-.47a3.29 3.29 0 0 1 -.23-.69.64.64 0 0 0 -.69-.56h-.43v1.25h-.45z" fill="#fff" stroke="#000" stroke-miterlimit="2.62" stroke-opacity=".94" stroke-width=".65"/><path d="m49.82 45.51h-8.16l-8.95-15.73a62.45 62.45 0 0 1 -3.46-7.36 27.49 27.49 0 0 1 .75 5.85v17.24h-8.1v-35.61h9.47l7.63 13.1a52.59 52.59 0 0 1 3.44 6.83 56.22 56.22 0 0 1 -.76-9.34v-10.59h8.16z" fill="#ffbe2e" stroke="#000" stroke-width=".6"/><path d="m91 9.9v35.61h-9.33v-25.46l-6 25.46h-6.41l-6.26-25.46v25.46h-7.52v-35.61h13.09l4.73 18.92 4.52-18.92z" fill="#ffbe2e" stroke="#000" stroke-width=".6"/><path d="m125 9.9-10.18 35.61h-10.21l-10.61-35.61h10.57l5.14 19.41c.36 1.15.67 2.28.94 3.39l6-22.8z" fill="#ffbe2e" stroke="#000" stroke-width=".6"/><path d="m142.9 18.43v27.08h-9.49v-27.08h-6.77v-8.53h23v8.53z" fill="#ffbe2e" stroke="#000" stroke-width=".6"/><path d="m162.61 9.9v35.61h-10v-35.61z" fill="#ffbe2e" stroke="#000" stroke-width=".6"/><path d="m164.91 35.21 9.3-1.83c.79 2.87 2.79 4.31 6 4.3q3.78 0 3.78-2.19a2 2 0 0 0 -.88-1.77 8.66 8.66 0 0 0 -3.11-1.15q-8.59-1.8-11-4.69a10.23 10.23 0 0 1 -2.44-6.81 11.14 11.14 0 0 1 3.49-8.38q3.52-3.33 10.1-3.33 10 0 13.17 8.73l-8.32 2.74a5.06 5.06 0 0 0 -5.23-3.57c-2.19 0-3.28.74-3.28 2.22a1.83 1.83 0 0 0 .74 1.54 8.61 8.61 0 0 0 2.87 1 54.69 54.69 0 0 1 8.33 2.4 9.16 9.16 0 0 1 4.13 3.58 10.53 10.53 0 0 1 1.65 6 10.85 10.85 0 0 1 -4 8.77q-4 3.34-10.55 3.34-11.94-.04-14.75-10.9z" fill="#ffbe2e" stroke="#000" stroke-width=".6"/><g fill="#fff"><path d="m49.24 51.15v2.12h3.12v-2.12zm-26.32.29v9.16h2.66v-4.44a5.48 5.48 0 0 0 -.25-1.5 15 15 0 0 0 1.13 1.89l2.93 4.05h2.68v-9.16h-2.68v2.71a12.07 12.07 0 0 0 .25 2.4 11.21 11.21 0 0 0 -1.13-1.76l-2.51-3.35zm23.69.07h-3v2.22h-1.21v1.74h1.19v3a2 2 0 0 0 .67 1.69 3.44 3.44 0 0 0 2.12.53 10.09 10.09 0 0 0 1.82-.16v-1.9a4.42 4.42 0 0 1 -.89.11 1.27 1.27 0 0 1 -.47-.09c-.15-.07-.23-.28-.23-.62v-2.52h1.59v-1.74h-1.59zm-8.78 2.12c-2.37 0-3.76.72-4.17 2.14l2.86.23c.08-.49.48-.74 1.2-.74a1.54 1.54 0 0 1 .7.14.65.65 0 0 1 .24.6v.16a9.79 9.79 0 0 0 -4.07.8 2 2 0 0 0 -1.14 1.75 1.84 1.84 0 0 0 .69 1.41 3.11 3.11 0 0 0 2.12.62 3 3 0 0 0 2.56-1.09 4.2 4.2 0 0 0 .11 1h3a3.34 3.34 0 0 1 -.24-1.33v-2.77a4.47 4.47 0 0 0 -.17-1.5 1.72 1.72 0 0 0 -.62-.74 3.31 3.31 0 0 0 -1.28-.51 9 9 0 0 0 -1.79-.17zm20.14 0a4.8 4.8 0 0 0 -3.18 1 3.18 3.18 0 0 0 -1.21 2.56 3.3 3.3 0 0 0 1.17 2.48 4.5 4.5 0 0 0 3.15 1 4.75 4.75 0 0 0 3.21-1 3.22 3.22 0 0 0 1.22-2.56 3.17 3.17 0 0 0 -1.2-2.52 4.72 4.72 0 0 0 -3.13-1zm10.76 0a2.46 2.46 0 0 0 -2.3 1.11v-1h-2.9v6.86h3.13v-4.1c0-.68.29-1 .85-1a.71.71 0 0 1 .48.15c.13.09.2.32.2.67v4.3h3.13v-4.39a3.38 3.38 0 0 0 -.26-1.57 1.93 1.93 0 0 0 -.86-.74 3.51 3.51 0 0 0 -1.47-.29zm8.19 0c-2.37 0-3.75.72-4.16 2.14l2.85.23c.08-.49.49-.74 1.21-.74a1.54 1.54 0 0 1 .7.14.65.65 0 0 1 .24.6v.16a9.87 9.87 0 0 0 -4.08.8 2 2 0 0 0 -1.14 1.75 1.85 1.85 0 0 0 .7 1.41 3.71 3.71 0 0 0 4.68-.47 3.74 3.74 0 0 0 .11 1h3a3.34 3.34 0 0 1 -.24-1.33v-2.77a4.46 4.46 0 0 0 -.16-1.5 1.88 1.88 0 0 0 -.63-.74 3.31 3.31 0 0 0 -1.28-.51 9.07 9.07 0 0 0 -1.8-.17zm-27.68.14v6.83h3.12v-6.83zm8.76 1.54a.86.86 0 0 1 .82.42 3.28 3.28 0 0 1 .18 1.39 5.55 5.55 0 0 1 -.17 1.35.8.8 0 0 1 -.88.65.89.89 0 0 1 -.78-.38 3.11 3.11 0 0 1 -.26-1.56 3.05 3.05 0 0 1 .25-1.43.85.85 0 0 1 .84-.44zm-19.29 2.1v.33c0 .58-.11.95-.35 1.12a1.38 1.38 0 0 1 -.85.26c-.53 0-.79-.21-.79-.62 0-.61.61-1 1.94-1.09zm39.1 0v.33c0 .58-.12.95-.35 1.12a1.39 1.39 0 0 1 -.86.26c-.53 0-.79-.21-.79-.62 0-.61.62-1 2-1.09z" stroke="#002d3f" stroke-linejoin="round" stroke-width="2.76"/><path d="m171.56 51.15v2.12h-3.13v-2.12zm0 2.62v6.83h-3.13v-6.83z" stroke="#002d3f" stroke-miterlimit="2.62" stroke-width="2.76"/><path d="m207.3 51.15v2.12h3.13v-2.12zm8.1.36h-3l-.05 2.22h-1.19v1.74h1.19v3a2 2 0 0 0 .68 1.69 3.44 3.44 0 0 0 2.12.53 10.09 10.09 0 0 0 1.82-.16v-1.9a4.42 4.42 0 0 1 -.89.11 1.27 1.27 0 0 1 -.47-.09c-.15-.07-.23-.28-.23-.62v-2.52h1.62v-1.74h-1.6zm-8.1 2.26v6.83h3.13v-6.83z" stroke="#002d3f" stroke-miterlimit="2.62" stroke-width="2.76"/><path d="m85.45 51.44v9.16h-3.08v-9.16z" stroke="#002d3f" stroke-miterlimit="2.62" stroke-width="2.76"/><path d="m102.86 51.44v9.16h-3v-6.55l-2 6.55h-2.11l-2.06-6.55v6.55h-2.46v-9.16h4.29l1.55 4.86 1.48-4.86z" stroke="#002d3f" stroke-miterlimit="2.62" stroke-width="2.76"/><path d="m117.49 51.51h-3v2.22h-1.19v1.74h1.19v3a2 2 0 0 0 .67 1.69 3.47 3.47 0 0 0 2.13.53 10.09 10.09 0 0 0 1.82-.16v-1.9a4.61 4.61 0 0 1 -.9.11 1.27 1.27 0 0 1 -.47-.09c-.15-.07-.23-.28-.23-.62v-2.52h1.6v-1.74h-1.6zm-8.89 2.12a4.8 4.8 0 0 0 -3.18 1 3.23 3.23 0 0 0 -1.21 2.56 3.3 3.3 0 0 0 1.17 2.48 4.5 4.5 0 0 0 3.15 1 4.75 4.75 0 0 0 3.21-1 3.21 3.21 0 0 0 1.26-2.51 3.17 3.17 0 0 0 -1.2-2.52 4.8 4.8 0 0 0 -3.2-1.01zm15.49 0a4.8 4.8 0 0 0 -3.18 1 3.18 3.18 0 0 0 -1.21 2.56 3.29 3.29 0 0 0 1.16 2.48 4.55 4.55 0 0 0 3.14 1.07 4.82 4.82 0 0 0 3.21-1 3.28 3.28 0 0 0 .46-4.62 2.86 2.86 0 0 0 -.46-.46 4.75 4.75 0 0 0 -3.12-1.03zm-15.51 1.68a.84.84 0 0 1 .82.42 3.16 3.16 0 0 1 .23 1.39 5.55 5.55 0 0 1 -.17 1.35.8.8 0 0 1 -.88.65.89.89 0 0 1 -.78-.38 3.11 3.11 0 0 1 -.26-1.56 3.05 3.05 0 0 1 .25-1.43.84.84 0 0 1 .79-.44zm15.49 0a.86.86 0 0 1 .82.42 3.15 3.15 0 0 1 .22 1.39 5.6 5.6 0 0 1 -.16 1.35.83.83 0 0 1 -.89.65.87.87 0 0 1 -.77-.38 4.54 4.54 0 0 1 0-3 .84.84 0 0 1 .78-.43z" stroke="#002d3f" stroke-miterlimit="2.62" stroke-width="2.76"/><path d="m132.64 60.6h-3v-6.83h2.6v1.41a2 2 0 0 1 2.08-1.53h.45v2.35a2.25 2.25 0 0 0 -.58-.07 1.36 1.36 0 0 0 -1.55 1.14 1.29 1.29 0 0 0 0 .34z" stroke="#002d3f" stroke-miterlimit="2.62" stroke-width="2.76"/><path d="m149.14 51.44-3.32 9.16h-3.35l-3.47-9.16h3.46l1.69 5c.11.3.21.59.3.88l2-5.87z" stroke="#002d3f" stroke-miterlimit="2.62" stroke-width="2.76"/><path d="m154.78 58.15 2.91.17a3 3 0 0 1 -1.32 1.68 5.17 5.17 0 0 1 -2.87.7 4.89 4.89 0 0 1 -3.21-1 3.08 3.08 0 0 1 -1.2-2.48 3.33 3.33 0 0 1 1.18-2.58 4.54 4.54 0 0 1 3.16-1.06 4.6 4.6 0 0 1 3.09 1 3.34 3.34 0 0 1 1.18 2.7v.39h-5.33a1.54 1.54 0 0 0 .26 1 1.19 1.19 0 0 0 1 .31 1.06 1.06 0 0 0 1.15-.83zm-.21-1.77a1.12 1.12 0 0 0 -.33-.93 1.21 1.21 0 0 0 -.78-.24q-1.11 0-1.11 1.17z" stroke="#002d3f" stroke-miterlimit="2.62" stroke-width="2.76"/><path d="m166.76 60.6h-3.12v-4.11a1.46 1.46 0 0 0 -.15-.77.61.61 0 0 0 -.55-.21 1 1 0 0 0 -.57.16.57.57 0 0 0 -.27.34 4.45 4.45 0 0 0 0 .73v3.86h-3.1v-9.16h3.13v3.14a2.82 2.82 0 0 1 2.21-.95 3.15 3.15 0 0 1 1.21.21 2.13 2.13 0 0 1 .8.52 1.77 1.77 0 0 1 .38.63 4.18 4.18 0 0 1 .1 1.17z" stroke="#002d3f" stroke-miterlimit="2.62" stroke-width="2.76"/><path d="m181.6 51.44v9.16h3.08v-9.16zm-4.75 2.19a4.29 4.29 0 0 0 -2.95 1 3.32 3.32 0 0 0 -1.13 2.59 3.2 3.2 0 0 0 1.14 2.52 4.36 4.36 0 0 0 3 1 4.18 4.18 0 0 0 2.61-.75 3 3 0 0 0 1.18-2l-2.7-.14c-.1.68-.44 1-1 1a.84.84 0 0 1 -.8-.4 2.52 2.52 0 0 1 -.23-1.24 3 3 0 0 1 .23-1.37.78.78 0 0 1 .73-.39c.53 0 .87.36 1 1.08l2.74-.19a2.83 2.83 0 0 0 -1.16-2 4.19 4.19 0 0 0 -2.66-.71zm13.4 0a4.54 4.54 0 0 0 -3.16 1.06 3.33 3.33 0 0 0 -1.18 2.58 3.08 3.08 0 0 0 1.2 2.48 4.89 4.89 0 0 0 3.21 1 5.17 5.17 0 0 0 2.87-.7 3 3 0 0 0 1.32-1.72l-2.91-.17a1.05 1.05 0 0 1 -1.2.84 1.19 1.19 0 0 1 -1-.31 1.69 1.69 0 0 1 -.26-1h5.33v-.39a3.34 3.34 0 0 0 -1.18-2.7 4.6 4.6 0 0 0 -3.09-1zm0 1.58a1.25 1.25 0 0 1 .79.24 1.15 1.15 0 0 1 .32.93h-2.22a1 1 0 0 1 1.14-1.17z" stroke="#002d3f" stroke-miterlimit="2.62" stroke-width="2.76"/><path d="m204.26 53.63v7h-3.12v-7h-2.21v-2.19h7.54v2.19z" stroke="#002d3f" stroke-miterlimit="2.62" stroke-width="2.76"/><path d="m221.11 51.44v9.16h-3.11v-9.16z" stroke="#002d3f" stroke-miterlimit="2.62" stroke-width="2.76"/><path d="m228 58.15 2.91.17a3 3 0 0 1 -1.29 1.68 5.17 5.17 0 0 1 -2.87.7 4.89 4.89 0 0 1 -3.21-1 3.08 3.08 0 0 1 -1.2-2.48 3.33 3.33 0 0 1 1.18-2.58 4.54 4.54 0 0 1 3.16-1.06 4.6 4.6 0 0 1 3.09 1 3.34 3.34 0 0 1 1.18 2.7v.39h-5.33a1.54 1.54 0 0 0 .26 1 1.19 1.19 0 0 0 1 .31 1.05 1.05 0 0 0 1.2-.84zm-.21-1.77a1.12 1.12 0 0 0 -.33-.93 1.21 1.21 0 0 0 -.78-.24q-1.11 0-1.11 1.17z" stroke="#002d3f" stroke-miterlimit="2.62" stroke-width="2.76"/><path d="m87.3 64.83v9.17h-3.3v-9.17z" stroke="#002d3f" stroke-miterlimit="2.62" stroke-width="2.76"/><path d="m149.53 64.54v2.12h3.12v-2.12zm8.73 2.46a4.8 4.8 0 0 0 -3.18 1 3.16 3.16 0 0 0 -1.21 2.55 3.31 3.31 0 0 0 1.13 2.53 4.53 4.53 0 0 0 3.16 1 4.82 4.82 0 0 0 3.21-1 3.18 3.18 0 0 0 1.21-2.56 3.1 3.1 0 0 0 -1.16-2.52 4.74 4.74 0 0 0 -3.16-1zm-8.73.14v6.86h3.12v-6.84zm8.71 1.54a.86.86 0 0 1 .82.42 3.11 3.11 0 0 1 .22 1.38 5.68 5.68 0 0 1 -.16 1.36.83.83 0 0 1 -.89.65.87.87 0 0 1 -.77-.38 4.54 4.54 0 0 1 0-3 .86.86 0 0 1 .78-.43z" stroke="#002d3f" stroke-miterlimit="2.62" stroke-width="2.76"/><path d="m101.91 64.36a4.85 4.85 0 0 0 -1.56.2 2.2 2.2 0 0 0 -.92.57 1.62 1.62 0 0 0 -.43.78 6.52 6.52 0 0 0 -.09 1.25h-1.19v1.74h1.19v5.1h3v-5.1h2v-1.74h-2v-.24c0-.33.11-.54.31-.62a1.7 1.7 0 0 1 .67-.13 10.56 10.56 0 0 1 1.12.09v-1.76a14.82 14.82 0 0 0 -2.1-.14zm-7.66 2.64a2.45 2.45 0 0 0 -2.25 1.13v-1h-2.9v6.87h3.13v-4.1c0-.68.28-1 .85-1a.75.75 0 0 1 .48.14.89.89 0 0 1 .2.68v4.28h3.12v-4.38a3.51 3.51 0 0 0 -.25-1.57 1.85 1.85 0 0 0 -.87-.74 3.28 3.28 0 0 0 -1.51-.31zm14.5 0a4.77 4.77 0 0 0 -3.17 1 3.16 3.16 0 0 0 -1.21 2.55 3.26 3.26 0 0 0 1.16 2.45 4.55 4.55 0 0 0 3.15 1 4.85 4.85 0 0 0 3.22-1 3.28 3.28 0 0 0 .46-4.62 2.86 2.86 0 0 0 -.46-.46 4.74 4.74 0 0 0 -3.15-.92zm0 1.68a.83.83 0 0 1 .81.42 3.12 3.12 0 0 1 .23 1.38 5.68 5.68 0 0 1 -.16 1.36.83.83 0 0 1 -.89.65.87.87 0 0 1 -.77-.38 4.54 4.54 0 0 1 0-3 .84.84 0 0 1 .78-.41z" stroke="#002d3f" stroke-miterlimit="2.62" stroke-width="2.76"/><path d="m146.9 64.9h-3l-.05 2.22h-1.19v1.78h1.19v3a2 2 0 0 0 .68 1.69 3.44 3.44 0 0 0 2.12.53 11.09 11.09 0 0 0 1.82-.16v-1.96a4.42 4.42 0 0 1 -.89.11 1.27 1.27 0 0 1 -.47-.09c-.15-.07-.23-.28-.23-.62v-2.5h1.59v-1.74h-1.57zm-21.47 2.1a2.5 2.5 0 0 0 -2.19 1.06v-.92h-2.81v6.86h3v-4.28c0-.55.26-.82.76-.82s.74.27.74.82v4.28h3v-4c0-.73.29-1.09.88-1.09a.64.64 0 0 1 .51.17.92.92 0 0 1 .15.6v4.32h3v-4.66a2.59 2.59 0 0 0 -.27-1.34 1.76 1.76 0 0 0 -.84-.71 3 3 0 0 0 -1.36-.29 2.74 2.74 0 0 0 -2.38 1.06 2.5 2.5 0 0 0 -2.19-1.06zm12.68 0q-3.54 0-4.16 2.14l2.85.23c.09-.5.49-.74 1.21-.74a1.54 1.54 0 0 1 .7.14.65.65 0 0 1 .24.6v.16a9.49 9.49 0 0 0 -4.07.8 2 2 0 0 0 -1.15 1.75 1.85 1.85 0 0 0 .7 1.41 3.11 3.11 0 0 0 2.12.62 3 3 0 0 0 2.56-1.11 4.2 4.2 0 0 0 .11 1h3a3.17 3.17 0 0 1 -.24-1.33v-2.74a4.41 4.41 0 0 0 -.17-1.49 1.68 1.68 0 0 0 -.63-.74 3.27 3.27 0 0 0 -1.27-.51 9.09 9.09 0 0 0 -1.8-.19zm-19.11 0a2 2 0 0 0 -2.08 1.54v-1.38h-2.6v6.84h3v-3.14c0-1 .52-1.48 1.55-1.48a2.88 2.88 0 0 1 .59.06v-2.38zm20 3.79v.33c0 .58-.11 1-.35 1.13a1.38 1.38 0 0 1 -.85.26c-.53 0-.8-.21-.8-.62 0-.61.62-.98 2-1.1z" stroke="#002d3f" stroke-miterlimit="2.62" stroke-width="2.76"/><path d="m171.6 74h-3.12v-4.3a.89.89 0 0 0 -.2-.68.75.75 0 0 0 -.48-.14c-.57 0-.85.34-.85 1v4.12h-3.13v-6.84h2.9v1a2.44 2.44 0 0 1 2.28-1.16 3.5 3.5 0 0 1 1.46.29 1.85 1.85 0 0 1 .87.74 3.51 3.51 0 0 1 .25 1.57z" stroke="#002d3f" stroke-miterlimit="2.62" stroke-width="2.76"/><path d="m181.27 64.68a5.51 5.51 0 0 0 -3.31.86 2.63 2.63 0 0 0 -1.14 2.16 2.31 2.31 0 0 0 .8 1.75 7.61 7.61 0 0 0 3.61 1.21 3.19 3.19 0 0 1 1 .29.5.5 0 0 1 .29.46c0 .38-.41.57-1.24.57a1.87 1.87 0 0 1 -2-1.11l-3 .47c.61 1.86 2.21 2.79 4.82 2.79a6.37 6.37 0 0 0 3.46-.86 2.6 2.6 0 0 0 1.32-2.27 2.31 2.31 0 0 0 -.54-1.53 3 3 0 0 0 -1.35-.92 23.41 23.41 0 0 0 -2.73-.62 3.07 3.07 0 0 1 -.94-.27.42.42 0 0 1 -.24-.39c0-.38.35-.57 1.07-.57a1.69 1.69 0 0 1 1.72.92l2.72-.71q-1.05-2.25-4.32-2.25zm25.78.22h-3v2.22h-1.19v1.78h1.14v3a2 2 0 0 0 .67 1.69 3.47 3.47 0 0 0 2.13.53 11.09 11.09 0 0 0 1.82-.16v-1.96a4.61 4.61 0 0 1 -.9.11 1.27 1.27 0 0 1 -.47-.09c-.15-.07-.22-.28-.22-.62v-2.5h1.59v-1.74h-1.62zm-8.58 2.1a4.9 4.9 0 0 0 -2.67.65 1.89 1.89 0 0 0 -.8 2.55 1.92 1.92 0 0 0 .39.51 5.82 5.82 0 0 0 3 .9 5.87 5.87 0 0 1 1.11.2c.16.07.23.16.23.27 0 .27-.4.41-1.21.41-1 0-1.54-.25-1.68-.74l-2.47.29q.78 2.07 4 2.07a5.89 5.89 0 0 0 3-.66 2 2 0 0 0 1.09-1.78 1.76 1.76 0 0 0 -.49-1.25 2.55 2.55 0 0 0 -1.19-.71 18.52 18.52 0 0 0 -2.66-.38c-.5 0-.75-.19-.75-.41s.08-.15.24-.23a2 2 0 0 1 .76-.12 1.41 1.41 0 0 1 1.38.61l2.37-.39c-.48-1.17-1.72-1.79-3.65-1.79zm15.14 0a4.57 4.57 0 0 0 -3.16 1 3.35 3.35 0 0 0 -1.19 2.59 3.12 3.12 0 0 0 1.2 2.48 4.9 4.9 0 0 0 3.22 1 5.11 5.11 0 0 0 2.86-.7 3 3 0 0 0 1.33-1.72l-2.87-.11a1.05 1.05 0 0 1 -1.2.84 1.19 1.19 0 0 1 -1-.31 1.55 1.55 0 0 1 -.27-1h5.34v-.39a3.39 3.39 0 0 0 -1.18-2.68 4.64 4.64 0 0 0 -3.08-1zm10.47 0a2.48 2.48 0 0 0 -2.18 1.06v-.92h-2.81v6.86h3v-4.28c0-.55.25-.82.76-.82s.74.27.74.82v4.28h3v-4c0-.73.29-1.09.88-1.09a.64.64 0 0 1 .51.17.92.92 0 0 1 .15.6v4.32h3v-4.66a2.48 2.48 0 0 0 -.23-1.34 1.76 1.76 0 0 0 -.84-.71 3 3 0 0 0 -1.35-.28 2.74 2.74 0 0 0 -2.38 1.06 2.5 2.5 0 0 0 -2.25-1.07zm-37.94.14 2.86 6.35a1.34 1.34 0 0 1 .14.47q0 .51-1.35.51a7.08 7.08 0 0 1 -1.13-.09v1.91l1.57.06a3.59 3.59 0 0 0 2.07-.48 2.94 2.94 0 0 0 1-1.31l3.13-7.4h-2.29l-1.37 3.64-1.32-3.64zm27.5 1.44a1.21 1.21 0 0 1 .78.24 1.12 1.12 0 0 1 .33.93h-2.23a1 1 0 0 1 .83-1.15h.29z" stroke="#002d3f" stroke-miterlimit="2.62" stroke-width="2.76"/><path d="m49.24 51.15v2.12h3.12v-2.12zm-26.32.29v9.16h2.66v-4.44a5.48 5.48 0 0 0 -.25-1.5 15 15 0 0 0 1.13 1.89l2.93 4.05h2.68v-9.16h-2.68v2.71a12.07 12.07 0 0 0 .25 2.4 11.21 11.21 0 0 0 -1.13-1.76l-2.51-3.35zm23.69.07h-3v2.22h-1.21v1.74h1.19v3a2 2 0 0 0 .67 1.69 3.44 3.44 0 0 0 2.12.53 10.09 10.09 0 0 0 1.82-.16v-1.9a4.42 4.42 0 0 1 -.89.11 1.27 1.27 0 0 1 -.47-.09c-.15-.07-.23-.28-.23-.62v-2.52h1.59v-1.74h-1.59zm-8.78 2.12c-2.37 0-3.76.72-4.17 2.14l2.86.23c.08-.49.48-.74 1.2-.74a1.54 1.54 0 0 1 .7.14.65.65 0 0 1 .24.6v.16a9.79 9.79 0 0 0 -4.07.8 2 2 0 0 0 -1.14 1.75 1.84 1.84 0 0 0 .69 1.41 3.11 3.11 0 0 0 2.12.62 3 3 0 0 0 2.56-1.09 4.2 4.2 0 0 0 .11 1h3a3.34 3.34 0 0 1 -.24-1.33v-2.77a4.47 4.47 0 0 0 -.17-1.5 1.72 1.72 0 0 0 -.62-.74 3.31 3.31 0 0 0 -1.28-.51 9 9 0 0 0 -1.79-.17zm20.14 0a4.8 4.8 0 0 0 -3.18 1 3.18 3.18 0 0 0 -1.21 2.56 3.3 3.3 0 0 0 1.17 2.48 4.5 4.5 0 0 0 3.15 1 4.75 4.75 0 0 0 3.21-1 3.22 3.22 0 0 0 1.22-2.56 3.17 3.17 0 0 0 -1.2-2.52 4.72 4.72 0 0 0 -3.13-1zm10.76 0a2.46 2.46 0 0 0 -2.3 1.11v-1h-2.9v6.86h3.13v-4.1c0-.68.29-1 .85-1a.71.71 0 0 1 .48.15c.13.09.2.32.2.67v4.3h3.13v-4.39a3.38 3.38 0 0 0 -.26-1.57 1.93 1.93 0 0 0 -.86-.74 3.51 3.51 0 0 0 -1.47-.29zm8.19 0c-2.37 0-3.75.72-4.16 2.14l2.85.23c.08-.49.49-.74 1.21-.74a1.54 1.54 0 0 1 .7.14.65.65 0 0 1 .24.6v.16a9.87 9.87 0 0 0 -4.08.8 2 2 0 0 0 -1.14 1.75 1.85 1.85 0 0 0 .7 1.41 3.71 3.71 0 0 0 4.68-.47 3.74 3.74 0 0 0 .11 1h3a3.34 3.34 0 0 1 -.24-1.33v-2.77a4.46 4.46 0 0 0 -.16-1.5 1.88 1.88 0 0 0 -.63-.74 3.31 3.31 0 0 0 -1.28-.51 9.07 9.07 0 0 0 -1.8-.17zm-27.68.14v6.83h3.12v-6.83zm8.76 1.54a.86.86 0 0 1 .82.42 3.28 3.28 0 0 1 .18 1.39 5.55 5.55 0 0 1 -.17 1.35.8.8 0 0 1 -.88.65.89.89 0 0 1 -.78-.38 3.11 3.11 0 0 1 -.26-1.56 3.05 3.05 0 0 1 .25-1.43.85.85 0 0 1 .84-.44zm-19.29 2.1v.33c0 .58-.11.95-.35 1.12a1.38 1.38 0 0 1 -.85.26c-.53 0-.79-.21-.79-.62 0-.61.61-1 1.94-1.09zm39.1 0v.33c0 .58-.12.95-.35 1.12a1.39 1.39 0 0 1 -.86.26c-.53 0-.79-.21-.79-.62 0-.61.62-1 2-1.09z"/><path d="m85.45 51.44v9.16h-3.08v-9.16z"/><path d="m102.86 51.44v9.16h-3v-6.55l-2 6.55h-2.11l-2.06-6.55v6.55h-2.46v-9.16h4.29l1.55 4.86 1.48-4.86z"/><path d="m117.49 51.51h-3v2.22h-1.19v1.74h1.19v3a2 2 0 0 0 .67 1.69 3.47 3.47 0 0 0 2.13.53 10.09 10.09 0 0 0 1.82-.16v-1.9a4.61 4.61 0 0 1 -.9.11 1.27 1.27 0 0 1 -.47-.09c-.15-.07-.23-.28-.23-.62v-2.52h1.6v-1.74h-1.6zm-8.89 2.12a4.8 4.8 0 0 0 -3.18 1 3.23 3.23 0 0 0 -1.21 2.56 3.3 3.3 0 0 0 1.17 2.48 4.5 4.5 0 0 0 3.15 1 4.75 4.75 0 0 0 3.21-1 3.21 3.21 0 0 0 1.26-2.51 3.17 3.17 0 0 0 -1.2-2.52 4.8 4.8 0 0 0 -3.2-1.01zm15.49 0a4.8 4.8 0 0 0 -3.18 1 3.18 3.18 0 0 0 -1.21 2.56 3.29 3.29 0 0 0 1.16 2.48 4.55 4.55 0 0 0 3.14 1.07 4.82 4.82 0 0 0 3.21-1 3.28 3.28 0 0 0 .46-4.62 2.86 2.86 0 0 0 -.46-.46 4.75 4.75 0 0 0 -3.12-1.03zm-15.51 1.68a.84.84 0 0 1 .82.42 3.16 3.16 0 0 1 .23 1.39 5.55 5.55 0 0 1 -.17 1.35.8.8 0 0 1 -.88.65.89.89 0 0 1 -.78-.38 3.11 3.11 0 0 1 -.26-1.56 3.05 3.05 0 0 1 .25-1.43.84.84 0 0 1 .79-.44zm15.49 0a.86.86 0 0 1 .82.42 3.15 3.15 0 0 1 .22 1.39 5.6 5.6 0 0 1 -.16 1.35.83.83 0 0 1 -.89.65.87.87 0 0 1 -.77-.38 4.54 4.54 0 0 1 0-3 .84.84 0 0 1 .78-.43z"/><path d="m132.64 60.6h-3v-6.83h2.6v1.41a2 2 0 0 1 2.08-1.53h.45v2.35a2.25 2.25 0 0 0 -.58-.07 1.36 1.36 0 0 0 -1.55 1.14 1.29 1.29 0 0 0 0 .34z"/><path d="m171.56 51.15v2.12h-3.13v-2.12zm0 2.62v6.83h-3.13v-6.83z"/><path d="m207.3 51.15v2.12h3.13v-2.12zm8.1.36h-3l-.05 2.22h-1.19v1.74h1.19v3a2 2 0 0 0 .68 1.69 3.44 3.44 0 0 0 2.12.53 10.09 10.09 0 0 0 1.82-.16v-1.9a4.42 4.42 0 0 1 -.89.11 1.27 1.27 0 0 1 -.47-.09c-.15-.07-.23-.28-.23-.62v-2.52h1.62v-1.74h-1.6zm-8.1 2.26v6.83h3.13v-6.83z"/><path d="m149.14 51.44-3.32 9.16h-3.35l-3.47-9.16h3.46l1.69 5c.11.3.21.59.3.88l2-5.87z"/><path d="m154.78 58.15 2.91.17a3 3 0 0 1 -1.32 1.68 5.17 5.17 0 0 1 -2.87.7 4.89 4.89 0 0 1 -3.21-1 3.08 3.08 0 0 1 -1.2-2.48 3.33 3.33 0 0 1 1.18-2.58 4.54 4.54 0 0 1 3.16-1.06 4.6 4.6 0 0 1 3.09 1 3.34 3.34 0 0 1 1.18 2.7v.39h-5.33a1.54 1.54 0 0 0 .26 1 1.19 1.19 0 0 0 1 .31 1.06 1.06 0 0 0 1.15-.83zm-.21-1.77a1.12 1.12 0 0 0 -.33-.93 1.21 1.21 0 0 0 -.78-.24q-1.11 0-1.11 1.17z"/><path d="m166.76 60.6h-3.12v-4.11a1.46 1.46 0 0 0 -.15-.77.61.61 0 0 0 -.55-.21 1 1 0 0 0 -.57.16.57.57 0 0 0 -.27.34 4.45 4.45 0 0 0 0 .73v3.86h-3.1v-9.16h3.13v3.14a2.82 2.82 0 0 1 2.21-.95 3.15 3.15 0 0 1 1.21.21 2.13 2.13 0 0 1 .8.52 1.77 1.77 0 0 1 .38.63 4.18 4.18 0 0 1 .1 1.17z"/><path d="m181.6 51.44v9.16h3.08v-9.16zm-4.75 2.19a4.29 4.29 0 0 0 -2.95 1 3.32 3.32 0 0 0 -1.13 2.59 3.2 3.2 0 0 0 1.14 2.52 4.36 4.36 0 0 0 3 1 4.18 4.18 0 0 0 2.61-.75 3 3 0 0 0 1.18-2l-2.7-.14c-.1.68-.44 1-1 1a.84.84 0 0 1 -.8-.4 2.52 2.52 0 0 1 -.23-1.24 3 3 0 0 1 .23-1.37.78.78 0 0 1 .73-.39c.53 0 .87.36 1 1.08l2.74-.19a2.83 2.83 0 0 0 -1.16-2 4.19 4.19 0 0 0 -2.66-.71zm13.4 0a4.54 4.54 0 0 0 -3.16 1.06 3.33 3.33 0 0 0 -1.18 2.58 3.08 3.08 0 0 0 1.2 2.48 4.89 4.89 0 0 0 3.21 1 5.17 5.17 0 0 0 2.87-.7 3 3 0 0 0 1.32-1.72l-2.91-.17a1.05 1.05 0 0 1 -1.2.84 1.19 1.19 0 0 1 -1-.31 1.69 1.69 0 0 1 -.26-1h5.33v-.39a3.34 3.34 0 0 0 -1.18-2.7 4.6 4.6 0 0 0 -3.09-1zm0 1.58a1.25 1.25 0 0 1 .79.24 1.15 1.15 0 0 1 .32.93h-2.22a1 1 0 0 1 1.14-1.17z"/><path d="m204.26 53.63v7h-3.12v-7h-2.21v-2.19h7.54v2.19z"/><path d="m221.11 51.44v9.16h-3.11v-9.16z"/><path d="m228 58.15 2.91.17a3 3 0 0 1 -1.29 1.68 5.17 5.17 0 0 1 -2.87.7 4.89 4.89 0 0 1 -3.21-1 3.08 3.08 0 0 1 -1.2-2.48 3.33 3.33 0 0 1 1.18-2.58 4.54 4.54 0 0 1 3.16-1.06 4.6 4.6 0 0 1 3.09 1 3.34 3.34 0 0 1 1.18 2.7v.39h-5.33a1.54 1.54 0 0 0 .26 1 1.19 1.19 0 0 0 1 .31 1.05 1.05 0 0 0 1.2-.84zm-.21-1.77a1.12 1.12 0 0 0 -.33-.93 1.21 1.21 0 0 0 -.78-.24q-1.11 0-1.11 1.17z"/><path d="m87.3 64.83v9.17h-3.3v-9.17z"/><path d="m149.53 64.54v2.12h3.12v-2.12zm8.73 2.46a4.8 4.8 0 0 0 -3.18 1 3.16 3.16 0 0 0 -1.21 2.55 3.31 3.31 0 0 0 1.13 2.53 4.53 4.53 0 0 0 3.16 1 4.82 4.82 0 0 0 3.21-1 3.18 3.18 0 0 0 1.21-2.56 3.1 3.1 0 0 0 -1.16-2.52 4.74 4.74 0 0 0 -3.16-1zm-8.73.14v6.86h3.12v-6.84zm8.71 1.54a.86.86 0 0 1 .82.42 3.11 3.11 0 0 1 .22 1.38 5.68 5.68 0 0 1 -.16 1.36.83.83 0 0 1 -.89.65.87.87 0 0 1 -.77-.38 4.54 4.54 0 0 1 0-3 .86.86 0 0 1 .78-.43z"/><path d="m101.91 64.36a4.85 4.85 0 0 0 -1.56.2 2.2 2.2 0 0 0 -.92.57 1.62 1.62 0 0 0 -.43.78 6.52 6.52 0 0 0 -.09 1.25h-1.19v1.74h1.19v5.1h3v-5.1h2v-1.74h-2v-.24c0-.33.11-.54.31-.62a1.7 1.7 0 0 1 .67-.13 10.56 10.56 0 0 1 1.12.09v-1.76a14.82 14.82 0 0 0 -2.1-.14zm-7.66 2.64a2.45 2.45 0 0 0 -2.25 1.13v-1h-2.9v6.87h3.13v-4.1c0-.68.28-1 .85-1a.75.75 0 0 1 .48.14.89.89 0 0 1 .2.68v4.28h3.12v-4.38a3.51 3.51 0 0 0 -.25-1.57 1.85 1.85 0 0 0 -.87-.74 3.28 3.28 0 0 0 -1.51-.31zm14.5 0a4.77 4.77 0 0 0 -3.17 1 3.16 3.16 0 0 0 -1.21 2.55 3.26 3.26 0 0 0 1.16 2.45 4.55 4.55 0 0 0 3.15 1 4.85 4.85 0 0 0 3.22-1 3.28 3.28 0 0 0 .46-4.62 2.86 2.86 0 0 0 -.46-.46 4.74 4.74 0 0 0 -3.15-.92zm0 1.68a.83.83 0 0 1 .81.42 3.12 3.12 0 0 1 .23 1.38 5.68 5.68 0 0 1 -.16 1.36.83.83 0 0 1 -.89.65.87.87 0 0 1 -.77-.38 4.54 4.54 0 0 1 0-3 .84.84 0 0 1 .78-.41z"/><path d="m146.9 64.9h-3l-.05 2.22h-1.19v1.78h1.19v3a2 2 0 0 0 .68 1.69 3.44 3.44 0 0 0 2.12.53 11.09 11.09 0 0 0 1.82-.16v-1.96a4.42 4.42 0 0 1 -.89.11 1.27 1.27 0 0 1 -.47-.09c-.15-.07-.23-.28-.23-.62v-2.5h1.59v-1.74h-1.57zm-21.47 2.1a2.5 2.5 0 0 0 -2.19 1.06v-.92h-2.81v6.86h3v-4.28c0-.55.26-.82.76-.82s.74.27.74.82v4.28h3v-4c0-.73.29-1.09.88-1.09a.64.64 0 0 1 .51.17.92.92 0 0 1 .15.6v4.32h3v-4.66a2.59 2.59 0 0 0 -.27-1.34 1.76 1.76 0 0 0 -.84-.71 3 3 0 0 0 -1.36-.29 2.74 2.74 0 0 0 -2.38 1.06 2.5 2.5 0 0 0 -2.19-1.06zm12.68 0q-3.54 0-4.16 2.14l2.85.23c.09-.5.49-.74 1.21-.74a1.54 1.54 0 0 1 .7.14.65.65 0 0 1 .24.6v.16a9.49 9.49 0 0 0 -4.07.8 2 2 0 0 0 -1.15 1.75 1.85 1.85 0 0 0 .7 1.41 3.11 3.11 0 0 0 2.12.62 3 3 0 0 0 2.56-1.11 4.2 4.2 0 0 0 .11 1h3a3.17 3.17 0 0 1 -.24-1.33v-2.74a4.41 4.41 0 0 0 -.17-1.49 1.68 1.68 0 0 0 -.63-.74 3.27 3.27 0 0 0 -1.27-.51 9.09 9.09 0 0 0 -1.8-.19zm-19.11 0a2 2 0 0 0 -2.08 1.54v-1.38h-2.6v6.84h3v-3.14c0-1 .52-1.48 1.55-1.48a2.88 2.88 0 0 1 .59.06v-2.38zm20 3.79v.33c0 .58-.11 1-.35 1.13a1.38 1.38 0 0 1 -.85.26c-.53 0-.8-.21-.8-.62 0-.61.62-.98 2-1.1z"/><path d="m171.6 74h-3.12v-4.3a.89.89 0 0 0 -.2-.68.75.75 0 0 0 -.48-.14c-.57 0-.85.34-.85 1v4.12h-3.13v-6.84h2.9v1a2.44 2.44 0 0 1 2.28-1.16 3.5 3.5 0 0 1 1.46.29 1.85 1.85 0 0 1 .87.74 3.51 3.51 0 0 1 .25 1.57z"/><path d="m181.27 64.68a5.51 5.51 0 0 0 -3.31.86 2.63 2.63 0 0 0 -1.14 2.16 2.31 2.31 0 0 0 .8 1.75 7.61 7.61 0 0 0 3.61 1.21 3.19 3.19 0 0 1 1 .29.5.5 0 0 1 .29.46c0 .38-.41.57-1.24.57a1.87 1.87 0 0 1 -2-1.11l-3 .47c.61 1.86 2.21 2.79 4.82 2.79a6.37 6.37 0 0 0 3.46-.86 2.6 2.6 0 0 0 1.32-2.27 2.31 2.31 0 0 0 -.54-1.53 3 3 0 0 0 -1.35-.92 23.41 23.41 0 0 0 -2.73-.62 3.07 3.07 0 0 1 -.94-.27.42.42 0 0 1 -.24-.39c0-.38.35-.57 1.07-.57a1.69 1.69 0 0 1 1.72.92l2.72-.71q-1.05-2.25-4.32-2.25zm25.78.22h-3v2.22h-1.19v1.78h1.14v3a2 2 0 0 0 .67 1.69 3.47 3.47 0 0 0 2.13.53 11.09 11.09 0 0 0 1.82-.16v-1.96a4.61 4.61 0 0 1 -.9.11 1.27 1.27 0 0 1 -.47-.09c-.15-.07-.22-.28-.22-.62v-2.5h1.59v-1.74h-1.62zm-8.58 2.1a4.9 4.9 0 0 0 -2.67.65 1.89 1.89 0 0 0 -.8 2.55 1.92 1.92 0 0 0 .39.51 5.82 5.82 0 0 0 3 .9 5.87 5.87 0 0 1 1.11.2c.16.07.23.16.23.27 0 .27-.4.41-1.21.41-1 0-1.54-.25-1.68-.74l-2.47.29q.78 2.07 4 2.07a5.89 5.89 0 0 0 3-.66 2 2 0 0 0 1.09-1.78 1.76 1.76 0 0 0 -.49-1.25 2.55 2.55 0 0 0 -1.19-.71 18.52 18.52 0 0 0 -2.66-.38c-.5 0-.75-.19-.75-.41s.08-.15.24-.23a2 2 0 0 1 .76-.12 1.41 1.41 0 0 1 1.38.61l2.37-.39c-.48-1.17-1.72-1.79-3.65-1.79zm15.14 0a4.57 4.57 0 0 0 -3.16 1 3.35 3.35 0 0 0 -1.19 2.59 3.12 3.12 0 0 0 1.2 2.48 4.9 4.9 0 0 0 3.22 1 5.11 5.11 0 0 0 2.86-.7 3 3 0 0 0 1.33-1.72l-2.87-.11a1.05 1.05 0 0 1 -1.2.84 1.19 1.19 0 0 1 -1-.31 1.55 1.55 0 0 1 -.27-1h5.34v-.39a3.39 3.39 0 0 0 -1.18-2.68 4.64 4.64 0 0 0 -3.08-1zm10.47 0a2.48 2.48 0 0 0 -2.18 1.06v-.92h-2.81v6.86h3v-4.28c0-.55.25-.82.76-.82s.74.27.74.82v4.28h3v-4c0-.73.29-1.09.88-1.09a.64.64 0 0 1 .51.17.92.92 0 0 1 .15.6v4.32h3v-4.66a2.48 2.48 0 0 0 -.23-1.34 1.76 1.76 0 0 0 -.84-.71 3 3 0 0 0 -1.35-.28 2.74 2.74 0 0 0 -2.38 1.06 2.5 2.5 0 0 0 -2.25-1.07zm-37.94.14 2.86 6.35a1.34 1.34 0 0 1 .14.47q0 .51-1.35.51a7.08 7.08 0 0 1 -1.13-.09v1.91l1.57.06a3.59 3.59 0 0 0 2.07-.48 2.94 2.94 0 0 0 1-1.31l3.13-7.4h-2.29l-1.37 3.64-1.32-3.64zm27.5 1.44a1.21 1.21 0 0 1 .78.24 1.12 1.12 0 0 1 .33.93h-2.23a1 1 0 0 1 .83-1.15h.29z"/><path d="m204 12.16a2.34 2.34 0 1 0 2.34 2.34 2.33 2.33 0 0 0 -2.34-2.34zm0 5.16a2.83 2.83 0 1 1 2.83-2.83 2.83 2.83 0 0 1 -2.83 2.83z"/><path d="m203.47 14.34h.46c.48 0 .79-.22.79-.55s-.33-.53-.81-.53a1.62 1.62 0 0 0 -.44 0zm-.47-1.34a6.22 6.22 0 0 1 .86-.06 1.6 1.6 0 0 1 1 .24.64.64 0 0 1 .28.54.79.79 0 0 1 -.66.73.74.74 0 0 1 .52.55 5.66 5.66 0 0 0 .27.79h-.47a3.29 3.29 0 0 1 -.23-.69.64.64 0 0 0 -.69-.56h-.43v1.25h-.45z"/></g></g></svg>